<svg xmlns="http://www.w3.org/2000/svg" width="42" height="42" viewBox="0 0 42 42">
  <title>DMD-lattice-icon</title>
  <polygon points="8.3 10.162 14.6 21.074 2 21.074 8.3 10.162" style="fill: none;stroke: #000;stroke-linecap: round;stroke-linejoin: round;stroke-width: 2px"/>
  <polygon points="20.9 10.162 27.2 21.074 14.6 21.074 20.9 10.162" style="fill: none;stroke: #000;stroke-linecap: round;stroke-linejoin: round;stroke-width: 2px"/>
  <polygon points="14.6 21.074 8.3 10.162 20.9 10.162 14.6 21.074" style="fill: none;stroke: #000;stroke-linecap: round;stroke-linejoin: round;stroke-width: 2px"/>
  <polygon points="27.2 21.074 20.9 10.162 33.5 10.162 27.2 21.074" style="fill: none;stroke: #000;stroke-linecap: round;stroke-linejoin: round;stroke-width: 2px"/>
  <polygon points="14.6 21.074 20.9 31.986 8.3 31.986 14.6 21.074" style="fill: none;stroke: #000;stroke-linecap: round;stroke-linejoin: round;stroke-width: 2px"/>
  <polygon points="27.2 21.074 33.5 31.986 20.9 31.986 27.2 21.074" style="fill: none;stroke: #000;stroke-linecap: round;stroke-linejoin: round;stroke-width: 2px"/>
  <polygon points="20.9 31.986 14.6 21.074 27.2 21.074 20.9 31.986" style="fill: none;stroke: #000;stroke-linecap: round;stroke-linejoin: round;stroke-width: 2px"/>
  <polygon points="33.5 31.986 27.2 21.074 39.8 21.074 33.5 31.986" style="fill: none;stroke: #000;stroke-linecap: round;stroke-linejoin: round;stroke-width: 2px"/>
</svg>
